<svg width="350" height="125" viewBox="0 0 350 125" fill="none" xmlns="http://www.w3.org/2000/svg">
<rect width="350" height="125" fill="white"/>
<path d="M71.4693 59.232C67.5333 59.232 64.6773 56.784 64.6773 50.448C64.6773 44.136 67.4613 41.304 71.4933 41.304C73.6533 41.304 75.7173 42.048 77.7093 43.416L80.1813 40.032C77.7333 38.016 74.8773 36.984 71.3973 36.984C63.5733 36.984 58.9653 42.72 58.9653 50.448C58.9653 58.392 63.5013 63.648 71.3013 63.648C74.6613 63.648 77.9733 62.376 80.2053 60.48L77.7093 57.024C75.8613 58.32 73.8453 59.232 71.4693 59.232Z" fill="#002B36"/>
<path d="M96.0505 27.48H83.0185V31.44H90.6745V55.608C90.6745 60.576 93.6265 63.648 98.7385 63.648C101.571 63.648 103.755 62.976 105.267 62.208L103.899 58.464C102.651 58.968 101.331 59.3041 99.8905 59.3041C97.6105 59.3041 96.0505 58.416 96.0505 56.088V27.48Z" fill="#002B36"/>
<path d="M122.288 25.248C120.2 25.248 118.784 26.712 118.784 28.608C118.784 30.552 120.2 32.016 122.288 32.016C124.376 32.016 125.816 30.552 125.816 28.608C125.816 26.712 124.376 25.248 122.288 25.248ZM126.488 37.656H111.104V41.592H121.112V58.032C121.112 65.064 116.312 67.776 108.752 69.216L109.616 73.3441C120.44 71.4001 126.488 67.128 126.488 57.672V37.656Z" fill="#002B36"/>
<path d="M135.493 52.104H155.317V47.688H135.493V52.104Z" fill="#002B36"/>
<path d="M167.202 26.88L161.826 27.48V63H167.202V26.88ZM183.978 37.656H177.714L167.586 49.128L178.482 63H185.058L173.73 48.984L183.978 37.656Z" fill="#002B36"/>
<path d="M200.591 36.984C193.223 36.984 189.119 42.432 189.119 50.328C189.119 58.512 193.175 63.648 200.567 63.648C207.911 63.648 212.016 58.32 212.016 50.28C212.016 42.216 208.007 36.984 200.591 36.984ZM200.591 41.16C204.455 41.16 206.376 44.04 206.376 50.28C206.376 56.616 204.455 59.496 200.567 59.496C196.679 59.496 194.759 56.616 194.759 50.328C194.759 44.04 196.727 41.16 200.591 41.16Z" fill="#002B36"/>
<path d="M219.221 63H224.597V44.808C225.965 42.888 228.053 41.088 230.525 41.088C233.597 41.088 234.149 42.792 234.149 47.184V63H239.525V44.52C239.525 39.768 237.173 36.984 232.445 36.984C229.397 36.984 226.373 38.376 224.261 40.944L223.853 37.656H219.221V63Z" fill="#002B36"/>
<path d="M262.882 26.88V39.744C261.25 37.944 259.162 36.984 256.498 36.984C250.234 36.984 246.49 42.624 246.49 50.328C246.49 58.296 249.514 63.648 256.018 63.648C258.994 63.648 261.442 62.28 263.146 59.88L263.53 63H268.258V27.48L262.882 26.88ZM257.914 41.112C259.954 41.112 261.634 42.144 262.882 43.92V55.92C261.61 57.912 259.858 59.52 257.434 59.52C254.098 59.52 252.178 56.784 252.178 50.328C252.178 44.016 254.29 41.112 257.914 41.112Z" fill="#002B36"/>
<path d="M286.935 36.984C279.567 36.984 275.463 42.432 275.463 50.328C275.463 58.512 279.519 63.648 286.911 63.648C294.255 63.648 298.359 58.32 298.359 50.28C298.359 42.216 294.351 36.984 286.935 36.984ZM286.935 41.16C290.799 41.16 292.719 44.04 292.719 50.28C292.719 56.616 290.799 59.496 286.911 59.496C283.023 59.496 281.103 56.616 281.103 50.328C281.103 44.04 283.071 41.16 286.935 41.16Z" fill="#002B36"/>
<path d="M314.204 46.2C314.204 55.416 311.276 60.552 304.388 67.152L307.365 70.032C315.093 63.624 319.749 56.976 319.749 46.2C319.749 35.424 315.093 28.776 307.365 22.368L304.388 25.248C311.132 31.728 314.204 36.936 314.204 46.2Z" fill="#6C71C4"/>
<path d="M39.328 68.6641H52.408V64.4161H44.392V28.0321H52.408V23.7361H39.328V68.6641Z" fill="#6C71C4"/>
<path d="M24 80L28 76L32 80L36 76L40 80L44 76L48 80L52 76L56 80L60 76L64 80L68 76" stroke="#B58900" stroke-width="2" stroke-linecap="round" stroke-linejoin="round"/>
<rect x="46" y="88" width="188" height="22" fill="#FFFDD9" stroke="#CCCAAE"/>
<path d="M58.91 101.446V98.62C58.91 97.288 58.082 96.496 56.384 96.496C55.736 96.496 54.956 96.628 54.164 96.928L54.494 97.876C55.142 97.654 55.76 97.546 56.18 97.546C57.074 97.546 57.59 97.876 57.59 98.698V99.112H56.684C54.752 99.112 53.672 99.862 53.672 101.194C53.672 102.37 54.47 103.162 55.754 103.162C56.564 103.162 57.314 102.868 57.776 102.28C58.004 102.832 58.466 103.084 59.09 103.156L59.39 102.244C59.054 102.136 58.91 101.944 58.91 101.446ZM56.162 102.172C55.448 102.172 55.082 101.812 55.082 101.134C55.082 100.396 55.58 99.952 56.846 99.952H57.59V101.35C57.266 101.872 56.702 102.172 56.162 102.172Z" fill="#002B36"/>
<path d="M71.2426 94.12H67.9846V95.11H69.8986V101.152C69.8986 102.394 70.6366 103.162 71.9146 103.162C72.6226 103.162 73.1686 102.994 73.5466 102.802L73.2046 101.866C72.8926 101.992 72.5626 102.076 72.2026 102.076C71.6326 102.076 71.2426 101.854 71.2426 101.272V94.12Z" fill="#002B36"/>
<path d="M78.1799 93.562C77.6639 93.562 77.3039 93.928 77.3039 94.402C77.3039 94.888 77.6639 95.254 78.1799 95.254C78.7079 95.254 79.0619 94.888 79.0619 94.402C79.0619 93.928 78.7079 93.562 78.1799 93.562ZM79.1159 96.664H75.9359V97.648H77.7719V102.016H75.8759V103H80.8379V102.016H79.1159V96.664Z" fill="#002B36"/>
<path d="M82.8492 103H84.1932V98.452C84.5352 97.972 85.0572 97.522 85.6752 97.522C86.4432 97.522 86.5812 97.948 86.5812 99.046V103H87.9252V98.38C87.9252 97.192 87.3372 96.496 86.1552 96.496C85.3932 96.496 84.6372 96.844 84.1092 97.486L84.0072 96.664H82.8492V103Z" fill="#002B36"/>
<path d="M95.3366 102.664L94.8506 101.776C94.5266 101.956 94.1366 102.076 93.6746 102.076C92.9006 102.076 92.5826 101.746 92.5826 101.068V97.642H94.5686L94.7186 96.664H92.5826V95.086L91.2386 95.248V96.664H89.8286V97.642H91.2386V101.08C91.2386 102.328 92.0126 103.162 93.4886 103.162C94.1906 103.162 94.8746 102.958 95.3366 102.664Z" fill="#002B36"/>
<path d="M98.3559 100.264H102.556C102.574 100.102 102.586 99.88 102.586 99.664C102.586 97.696 101.536 96.496 99.8559 96.496C98.0559 96.496 96.9639 97.936 96.9639 99.838C96.9639 101.806 98.0439 103.162 100.018 103.162C100.918 103.162 101.74 102.85 102.328 102.37L101.746 101.566C101.212 101.92 100.702 102.118 100.084 102.118C99.1659 102.118 98.4339 101.566 98.3559 100.264ZM99.8679 97.492C100.762 97.492 101.26 98.158 101.284 99.346H98.3499C98.4339 98.08 99.0219 97.492 99.8679 97.492Z" fill="#002B36"/>
<path d="M104.495 103H108.047V102.04H106.769V99.688C107.147 98.446 107.801 97.738 108.695 97.708V98.998H109.655L109.883 96.664C109.589 96.568 109.307 96.502 108.929 96.502C107.831 96.502 107.171 97.072 106.697 98.134L106.451 96.664H104.495V97.618H105.425V102.04H104.495V103Z" fill="#002B36"/>
<path d="M124.118 102.664L123.632 101.776C123.308 101.956 122.918 102.076 122.456 102.076C121.682 102.076 121.364 101.746 121.364 101.068V97.642H123.35L123.5 96.664H121.364V95.086L120.02 95.248V96.664H118.61V97.642H120.02V101.08C120.02 102.328 120.794 103.162 122.27 103.162C122.972 103.162 123.656 102.958 124.118 102.664Z" fill="#002B36"/>
<path d="M127.365 93.988L126.021 94.132V103H127.365V98.47C127.707 97.978 128.241 97.522 128.841 97.522C129.483 97.522 129.753 97.828 129.753 98.59V103H131.097V98.38C131.097 97.192 130.521 96.496 129.327 96.496C128.595 96.496 127.875 96.814 127.365 97.438V93.988Z" fill="#002B36"/>
<path d="M138.058 101.446V98.62C138.058 97.288 137.23 96.496 135.532 96.496C134.884 96.496 134.104 96.628 133.312 96.928L133.642 97.876C134.29 97.654 134.908 97.546 135.328 97.546C136.222 97.546 136.738 97.876 136.738 98.698V99.112H135.832C133.9 99.112 132.82 99.862 132.82 101.194C132.82 102.37 133.618 103.162 134.902 103.162C135.712 103.162 136.462 102.868 136.924 102.28C137.152 102.832 137.614 103.084 138.238 103.156L138.538 102.244C138.202 102.136 138.058 101.944 138.058 101.446ZM135.31 102.172C134.596 102.172 134.23 101.812 134.23 101.134C134.23 100.396 134.728 99.952 135.994 99.952H136.738V101.35C136.414 101.872 135.85 102.172 135.31 102.172Z" fill="#002B36"/>
<path d="M145.704 102.664L145.218 101.776C144.894 101.956 144.504 102.076 144.042 102.076C143.268 102.076 142.95 101.746 142.95 101.068V97.642H144.936L145.086 96.664H142.95V95.086L141.606 95.248V96.664H140.196V97.642H141.606V101.08C141.606 102.328 142.38 103.162 143.856 103.162C144.558 103.162 145.242 102.958 145.704 102.664Z" fill="#002B36"/>
<path d="M157.106 102.13C156.362 102.13 155.708 101.854 155.216 101.452L154.502 102.268C155.084 102.778 155.93 103.162 157.106 103.162C158.564 103.162 159.902 102.562 159.902 101.194C159.902 99.988 159.092 99.562 157.856 99.22C156.59 98.866 156.242 98.692 156.242 98.218C156.242 97.792 156.584 97.516 157.442 97.516C158.18 97.516 158.756 97.75 159.248 98.074L159.812 97.228C159.248 96.814 158.468 96.496 157.406 96.496C155.846 96.496 154.874 97.228 154.874 98.314C154.874 99.424 155.702 99.868 156.956 100.186C158.27 100.528 158.48 100.774 158.48 101.284C158.48 101.812 157.946 102.13 157.106 102.13Z" fill="#002B36"/>
<path d="M165.088 96.496C164.386 96.496 163.732 96.826 163.252 97.48L163.168 96.664H161.998V105.586L163.342 105.436V102.46C163.75 102.928 164.284 103.162 164.95 103.162C166.558 103.162 167.392 101.758 167.392 99.82C167.392 97.804 166.762 96.496 165.088 96.496ZM164.716 97.534C165.562 97.534 165.982 98.2 165.982 99.826C165.982 101.416 165.502 102.112 164.596 102.112C164.068 102.112 163.648 101.86 163.342 101.404V98.44C163.66 97.954 164.116 97.534 164.716 97.534Z" fill="#002B36"/>
<path d="M174.035 101.446V98.62C174.035 97.288 173.207 96.496 171.509 96.496C170.861 96.496 170.081 96.628 169.289 96.928L169.619 97.876C170.267 97.654 170.885 97.546 171.305 97.546C172.199 97.546 172.715 97.876 172.715 98.698V99.112H171.809C169.877 99.112 168.797 99.862 168.797 101.194C168.797 102.37 169.595 103.162 170.879 103.162C171.689 103.162 172.439 102.868 172.901 102.28C173.129 102.832 173.591 103.084 174.215 103.156L174.515 102.244C174.179 102.136 174.035 101.944 174.035 101.446ZM171.287 102.172C170.573 102.172 170.207 101.812 170.207 101.134C170.207 100.396 170.705 99.952 171.971 99.952H172.715V101.35C172.391 101.872 171.827 102.172 171.287 102.172Z" fill="#002B36"/>
<path d="M176.448 103H180V102.04H178.722V99.688C179.1 98.446 179.754 97.738 180.648 97.708V98.998H181.608L181.836 96.664C181.542 96.568 181.26 96.502 180.882 96.502C179.784 96.502 179.124 97.072 178.65 98.134L178.404 96.664H176.448V97.618H177.378V102.04H176.448V103Z" fill="#002B36"/>
<path d="M184.97 93.97L183.626 94.12V103H184.97V93.97ZM189.164 96.664H187.598L185.066 99.532L187.79 103H189.434L186.602 99.496L189.164 96.664Z" fill="#002B36"/>
<path d="M193.083 102.13C192.339 102.13 191.685 101.854 191.193 101.452L190.479 102.268C191.061 102.778 191.907 103.162 193.083 103.162C194.541 103.162 195.879 102.562 195.879 101.194C195.879 99.988 195.069 99.562 193.833 99.22C192.567 98.866 192.219 98.692 192.219 98.218C192.219 97.792 192.561 97.516 193.419 97.516C194.157 97.516 194.733 97.75 195.225 98.074L195.789 97.228C195.225 96.814 194.445 96.496 193.383 96.496C191.823 96.496 190.851 97.228 190.851 98.314C190.851 99.424 191.679 99.868 192.933 100.186C194.247 100.528 194.457 100.774 194.457 101.284C194.457 101.812 193.923 102.13 193.083 102.13Z" fill="#002B36"/>
<path d="M208.518 93.562C207.996 93.562 207.642 93.928 207.642 94.402C207.642 94.888 207.996 95.254 208.518 95.254C209.04 95.254 209.4 94.888 209.4 94.402C209.4 93.928 209.04 93.562 208.518 93.562ZM209.568 96.664H205.722V97.648H208.224V101.758C208.224 103.516 207.024 104.194 205.134 104.554L205.35 105.586C208.056 105.1 209.568 104.032 209.568 101.668V96.664Z" fill="#002B36"/>
<path d="M214.903 96.496C213.061 96.496 212.035 97.858 212.035 99.832C212.035 101.878 213.049 103.162 214.897 103.162C216.733 103.162 217.759 101.83 217.759 99.82C217.759 97.804 216.757 96.496 214.903 96.496ZM214.903 97.54C215.869 97.54 216.349 98.26 216.349 99.82C216.349 101.404 215.869 102.124 214.897 102.124C213.925 102.124 213.445 101.404 213.445 99.832C213.445 98.26 213.937 97.54 214.903 97.54Z" fill="#002B36"/>
<path d="M225.104 96.664H223.724L222.104 102.064L220.508 96.664H219.08L221.216 103H221.672C221.33 103.918 220.928 104.386 219.644 104.584L219.818 105.592C221.594 105.442 222.434 104.464 222.92 103.024L225.104 96.664Z" fill="#002B36"/>
</svg>
